<?xml version="1.0" encoding="UTF-8"?><svg id="Layer_1" xmlns="http://www.w3.org/2000/svg" viewBox="0 0 436.46 378.01"><path d="M436.46,0l-22.77,39.46-3.56,6.16-19.29,33.4-9.81,17.02h-52.24l-.3-.18,22.88-39.63,6.12-10.61h-116.47v114.08l-45.61-18.68V45.62h-116.47l6.11,10.57,22.97,39.79-.09.05h.17l13.29,23.02,67.21,27.53,6.82,2.79,45.61,18.67,6.82,2.8,30.21,12.36,14.18,5.81,28.41,11.64-23.01,39.86-10.9,18.86-22.8,39.5-.03.06-19.34,33.49-3.47,6.01h0c-7.6,13.18-15.19,26.32-22.79,39.49-.02.03-.04.07-.06.1l-26.33-45.61h.01s-.01-.02-.01-.02h-.01s-19.36-33.53-19.36-33.53l-22.78-39.48h52.64l1.67,2.89,7.95,13.79.05.08,6.16,10.66c2.06-3.56,4.11-7.12,6.17-10.68-2.06,3.56-4.11,7.12-6.17,10.68,4.42-7.66,8.84-15.31,13.26-22.97l2.58-4.45.83-1.45,12.33-21.37.6-1.03,3.8-6.58,3.39-5.89-7.19-2.95-6.82-2.79-22.78-9.34-22.82-9.35-6.82-2.79-16.72-6.85-13.23-5.41h0s-50.17-20.55-50.17-20.55l-18.79-7.69-21.13-36.59-13.12-22.73-3.01-5.21-6.84-11.84-19.25-33.36h-.01l-3.53-6.12L0,.02l.02-.02h436.44Z" style="fill:#fff;"/><polygon points="241.02 224.61 241.02 233.72 233.19 247.28 229.01 254.53 229 254.53 226.19 259.38 225.58 260.43 225.59 260.44 218.24 273.19 210.26 259.38 209.96 258.87 206.56 252.97 203.28 247.28 195.41 233.65 195.41 205.93 241.02 224.61" style="fill:#fff;"/></svg>